<?xml version="1.0" encoding="utf-8"?>
<!-- Generator: Adobe Illustrator 24.0.1, SVG Export Plug-In . SVG Version: 6.00 Build 0)  -->
<svg version="1.1" id="Layer_1" xmlns="http://www.w3.org/2000/svg" xmlns:xlink="http://www.w3.org/1999/xlink" x="0px" y="0px"
	 viewBox="0 0 512 512" style="enable-background:new 0 0 512 512;" xml:space="preserve">
<style type="text/css">
	.st0{fill:#3ABDE4;}
	.st1{fill:#CF388C;}
	.st2{fill:#F7BC31;}
	.st3{fill:none;}
</style>
<path class="st0" d="M273.37,70.72h-37.73c-6.98,0-13.22,4.35-15.65,10.89L95.22,418.57c-4.04,10.9,4.03,22.48,15.65,22.48h45.46
	c7.11,0,13.43-4.5,15.76-11.21L289.13,92.88C292.9,82.04,284.85,70.72,273.37,70.72z"/>
<path class="st1" d="M235.88,70.72h37.73c6.98,0,13.22,4.35,15.65,10.89l124.77,336.96c4.04,10.9-4.03,22.48-15.65,22.48h-45.46
	c-7.11,0-13.43-4.5-15.76-11.21L220.12,92.88C216.36,82.04,224.41,70.72,235.88,70.72z"/>
<path class="st2" d="M254.63,192.23l34.95-98.86c3.91-11.05-4.29-22.65-16.02-22.65h-37.08c-11.67,0-19.87,11.5-16.06,22.54
	L254.63,192.23z"/>
<rect class="st3" width="512" height="512"/>
</svg>
